# xmcd CD database file generated by Grip 3.3.1
# 
# Track frame offsets:
#       150
#       22025
#       43465
#       63720
#       85595
# 
# Disc length: 1425 seconds
# 
# Revision: 1
# Processed by: cddbd v1.5.2PL0 Copyright (c) Steve Scherf et al.
# Submitted via: Grip 3.3.1
# 
DISCID=41058f05
DTITLE=関ジャニ∞ - ∞SAKAおばちゃんROCK／大阪ロマネス
DTITLE=ク
DYEAR=2006
DGENRE=JPop
TTITLE0=∞SAKAおばちゃんROCK
TTITLE1=大阪ロマネスク [Single Version]
TTITLE2=いつか、また…。
TTITLE3=∞SAKAおばちゃんROCK (オリジナル・カラオケ)
TTITLE4=大阪ロマネスク [Single Version] (オリジナル・カラオ
TTITLE4=ケ)
EXTD=YEAR: 2006.06.07
EXTT0=
EXTT1=
EXTT2=
EXTT3=
EXTT4=
PLAYORDER=
